<svg xmlns="http://www.w3.org/2000/svg" width="96" height="64" viewBox="0 0 96 64" fill="none">
  <g filter="url(#shadow)">
    <path d="M62 20c0 8.837-7.163 16-16 16S30 28.837 30 20 37.163 4 46 4s16 7.163 16 16Z" fill="#2563EB"/>
    <path d="M24 28c6 12 14 16 24 16s18-4 24-16" stroke="#1E40AF" stroke-width="3" stroke-linecap="round"/>
    <circle cx="40" cy="18" r="2" fill="#111827"/>
    <path d="M46 36c4 8 14 10 22 10 4 0 6 4 6 8H22c0-7 5-12 12-12 4 0 8-2 12-6Z" fill="#F59E0B" opacity=".9"/>
    <path d="M62 12c2 2 4 4 6 6" stroke="#93C5FD" stroke-width="3" stroke-linecap="round"/>
  </g>
  <defs>
    <filter id="shadow" x="0" y="0" width="96" height="64" color-interpolation-filters="sRGB" filterUnits="userSpaceOnUse">
      <feFlood flood-opacity="0" result="BackgroundImageFix"/>
      <feColorMatrix in="SourceAlpha" type="matrix" values="0 0 0 0 0 0 0 0 0 0 0 0 0 0 0 0 0 0 127 0" result="hardAlpha"/>
      <feOffset dy="2"/>
      <feGaussianBlur stdDeviation="2"/>
      <feComposite in2="hardAlpha" operator="out"/>
      <feColorMatrix type="matrix" values="0 0 0 0 0.067 0 0 0 0 0.094 0 0 0 0 0.153 0 0 0 0.16 0"/>
      <feBlend in2="BackgroundImageFix" result="effect1_dropShadow"/>
      <feBlend in="SourceGraphic" in2="effect1_dropShadow" result="shape"/>
    </filter>
  </defs>
</svg>
